<?xml version="1.0" encoding="UTF-8" standalone="no"?>
<svg
   width="900px"
   height="900px"
   viewBox="0 0 900 900"
   version="1.1"
   xml:space="preserve"
   id="SVGRoot"
   inkscape:version="1.4.2 (f4327f4, 2025-05-13)"
   sodipodi:docname="moroshka.svg"
   xmlns:inkscape="http://www.inkscape.org/namespaces/inkscape"
   xmlns:sodipodi="http://sodipodi.sourceforge.net/DTD/sodipodi-0.dtd"
   xmlns="http://www.w3.org/2000/svg"
   xmlns:svg="http://www.w3.org/2000/svg"><defs
   id="defs48" />
<sodipodi:namedview
   pagecolor="#a9a9a9"
   bordercolor="#292929"
   borderopacity="1"
   inkscape:showpageshadow="2"
   inkscape:pageopacity="0.0"
   inkscape:pagecheckerboard="0"
   inkscape:deskcolor="#232323"
   id="namedview1"
   inkscape:zoom="0.70710678"
   inkscape:cx="639.22453"
   inkscape:cy="461.03362"
   inkscape:window-width="2560"
   inkscape:window-height="1373"
   inkscape:window-x="-9"
   inkscape:window-y="-9"
   inkscape:window-maximized="1"
   inkscape:current-layer="SVGRoot" />
<style
   type="text/css"
   id="style1">
g.prefab path {
  vector-effect:non-scaling-stroke;
  -inkscape-stroke:hairline;
  fill: none;
  fill-opacity: 1;
  stroke-opacity: 1;
  stroke: #00349c;
}
</style>

<rect
   style="display:inline;fill:#b64919;fill-opacity:1;stroke-width:1.193;stroke-dasharray:none"
   id="rect59"
   width="900"
   height="900"
   x="-0.0078125"
   y="0" /><g
   inkscape:groupmode="layer"
   id="layer1"
   inkscape:label="Layer 1"
   style="display:inline"><path
     style="fill:#fee7be;fill-opacity:1;stroke-width:1.193;stroke-dasharray:none"
     d="m 763.49854,248.72481 c -41.78323,2.66862 -69.38983,13.76229 -96.34329,26.16295 -24.19128,13.41973 -44.84525,29.73362 -58.68987,51.6188 -12.22766,-30.06638 -18.65954,-62.02465 19.26866,-103.59115 21.52467,-22.71908 49.90745,-34.76999 88.38835,-31.1127 29.21356,1.78925 55.08615,11.08531 78.75735,19.35983 22.16343,7.74746 42.33158,14.29414 63.37111,21.65237 -21.59607,66.14514 -61.79321,97.4692 -82.02438,109.07122 -25.20844,17.17772 -51.15918,25.66014 -77.78175,24.92551 -38.56878,2.58418 -68.34708,-14.99072 -73.5391,-19.79899 14.31992,-26.22377 37.22798,-43.42998 60.81118,-59.9273 24.09968,-15.15018 48.54993,-28.80905 77.78174,-38.36054 z"
     id="path69"
     sodipodi:nodetypes="cccccscccccc" /><path
     style="fill:#fee7be;fill-opacity:1;stroke-width:1.193;stroke-dasharray:none"
     d="m 457.25,384.25 c 36.47203,4.09159 64.56845,22.06277 77.75,64.75 10.35191,49.27498 -6.11723,85.88446 -43.75,112.5 -26.62222,17.18449 -64.69153,28.43373 -107.25,-3 -22.21288,-22.8561 -39.73161,-50.17163 -22.5,-110.5 17.68928,-38.8072 46.78094,-63.54338 95.75,-63.75 z"
     id="path68"
     sodipodi:nodetypes="cccccc" /><path
     style="fill:#fee7be;fill-opacity:1;stroke-width:1.193;stroke-dasharray:none"
     d="m 552.75,440.5 c 21.91342,-18.59002 46.12897,-32.44035 57.25,-73.25 17.58548,9.66385 32.92173,10.63067 60,57 16.72022,31.53452 13.70862,62.63056 0.5,93.5 -16.31412,26.73069 -35.78309,39.03923 -56.75,44.5 -40.34763,10.40739 -58.01336,-4.13531 -79.25,-14.75 30.61754,-54.47623 27.12691,-82.80285 18.25,-107 z"
     id="path67"
     sodipodi:nodetypes="ccccccc" /><path
     style="fill:#fee7be;fill-opacity:1;stroke-width:1.193;stroke-dasharray:none"
     d="m 451.48768,279.1304 c 15.89372,20.87526 24.96937,47.3163 17.85444,86.97413 26.74105,5.03121 52.86545,14.56391 74.95332,53.56334 19.55311,-14.92124 41.46585,-25.04713 47.0226,-68.41258 2.78329,-37.93108 -12.90673,-59.69215 -33.94112,-77.07464 -42.51749,-29.11206 -81.03725,-7.78719 -105.88924,4.94975 z"
     id="path66"
     sodipodi:nodetypes="cccccc" /><path
     style="display:inline;fill:#fee7be;fill-opacity:1"
     d="m 286.68566,260.75888 c -3.69069,-16.72406 -2.20397,-27.87096 0.39645,-35.69454 -102.66311,-21.42718 -172.04562,77.81294 -137.63389,138.15165 19.14258,-13.7017 40.70943,-31.1768 93.49632,-26.125 1.83813,-26.74322 16.50183,-57.27178 43.74112,-76.33211 z"
     id="path56"
     sodipodi:nodetypes="ccccc" /><path
     style="fill:#fee7be;fill-opacity:1;stroke-width:1.193;stroke-dasharray:none"
     d="m 274.71098,439.29009 c -16.20848,-18.34742 -34.0923,-36.08641 -34.825,-81.67083 -115.32835,-15.69952 -191.699316,176.93003 -40.12831,192.33304 8.9921,-28.00734 4.25058,-72.61189 74.95331,-110.66221 z"
     id="path59"
     sodipodi:nodetypes="cccc" /><path
     style="fill:#fee7be;fill-opacity:1;stroke-width:1.193;stroke-dasharray:none"
     d="m 308.29856,244.30539 c 79.57073,-28.38327 99.19271,0.96189 130.4612,19.09189 12.03489,-7.63407 24.86055,-15.21165 49.85102,-21.92032 18.69711,-122.40114 -180.24388,-123.5559 -180.31222,2.82843 z"
     id="path60"
     sodipodi:nodetypes="cccc" /><path
     style="fill:#fee7be;fill-opacity:1;stroke-width:1.193;stroke-dasharray:none"
     d="m 157.5,561.875 c 13.64869,4.8895 23.10729,8.10189 44.625,7.75 9.26083,39.54294 28.91619,73.03929 74.375,90 -0.99277,4.95547 -0.87751,13.72746 1.125,29 C 207.5484,717.43645 113.25421,650.83697 157.5,561.875 Z"
     id="path61"
     sodipodi:nodetypes="ccccc" /><path
     style="fill:#fee7be;fill-opacity:1;stroke-width:1.193;stroke-dasharray:none"
     d="m 379.625,644.375 c 12.55988,23.9711 28.54639,44.33774 63.625,62.375 -40.23326,75.30445 -156.04495,34.63661 -145.75,-42.375 28.53866,3.97251 55.91967,-2.63921 82.125,-20 z"
     id="path62"
     sodipodi:nodetypes="cccc" /><path
     style="fill:#fee7be;fill-opacity:1;stroke-width:1.193;stroke-dasharray:none"
     d="m 414.5,595.5 c -5.46976,12.23715 -11.27403,24.09797 -19.375,33.375 40.24534,95.11028 194.86781,102.5705 203.75,-41.125 -43.47442,0.0799 -58.49153,-12.44587 -78,-23.25 -25.39444,22.22703 -55.55286,38.82389 -106.375,31 z"
     id="path63"
     sodipodi:nodetypes="ccccc" /><path
     style="fill:#fee7be;fill-opacity:1;stroke-width:1.193;stroke-dasharray:none"
     d="m 295.25,452.25 c 8.16045,7.9291 25.33956,10.82087 40,13.25 -5.09924,64.02152 17.36447,104.21451 60.25,124.25 -34.7854,71.24282 -104.6818,66.77833 -144.65345,30.59891 C 227.63317,599.33785 216.3349,566.47064 223.11279,534.54941 229.0867,506.41456 246.34123,470.69398 295.25,452.25 Z"
     id="path64"
     sodipodi:nodetypes="cccssc" /><path
     style="fill:#fee7be;fill-opacity:1;stroke-width:1.193;stroke-dasharray:none"
     d="m 449.25,363.75 c -45.86461,4.10712 -83.77681,27.45396 -109,81.5 C 289.689,439.56461 242.75743,391.48215 267.77922,318.67412 272.86031,303.88926 280.58629,292.74461 294,278.5 c 8.77471,-8.66897 31.75047,-22.71504 59.96086,-24.70558 33.89987,-2.392 74.40127,11.81979 94.14922,62.97035 5.43632,14.081 0.8913,30.6724 1.13992,46.98523 z"
     id="path65"
     sodipodi:nodetypes="ccscssc" /></g></svg>
