<?xml version="1.0" encoding="UTF-8" standalone="no"?>
<svg
   width="900px"
   height="900px"
   viewBox="0 0 900 900"
   version="1.1"
   xml:space="preserve"
   id="SVGRoot"
   inkscape:version="1.4.2 (f4327f4, 2025-05-13)"
   sodipodi:docname="moroshka-modules.svg"
   inkscape:export-filename="moroshka-protect.png"
   inkscape:export-xdpi="124"
   inkscape:export-ydpi="124"
   xmlns:inkscape="http://www.inkscape.org/namespaces/inkscape"
   xmlns:sodipodi="http://sodipodi.sourceforge.net/DTD/sodipodi-0.dtd"
   xmlns="http://www.w3.org/2000/svg"
   xmlns:svg="http://www.w3.org/2000/svg"><defs
   id="defs48"><rect
     x="123.68421"
     y="123.68421"
     width="673.68421"
     height="314.47368"
     id="rect174" /></defs>
<sodipodi:namedview
   pagecolor="#a9a9a9"
   bordercolor="#292929"
   borderopacity="1"
   inkscape:showpageshadow="2"
   inkscape:pageopacity="0.0"
   inkscape:pagecheckerboard="0"
   inkscape:deskcolor="#232323"
   id="namedview1"
   inkscape:zoom="0.5"
   inkscape:cx="776"
   inkscape:cy="271"
   inkscape:window-width="2560"
   inkscape:window-height="1373"
   inkscape:window-x="-9"
   inkscape:window-y="-9"
   inkscape:window-maximized="1"
   inkscape:current-layer="SVGRoot" />
<style
   type="text/css"
   id="style1">
g.prefab path {
  vector-effect:non-scaling-stroke;
  -inkscape-stroke:hairline;
  fill: none;
  fill-opacity: 1;
  stroke-opacity: 1;
  stroke: #00349c;
}
</style>

<rect
   style="display:none;fill:#b64919;fill-opacity:1;stroke-width:1.193;stroke-dasharray:none"
   id="rect59"
   width="900"
   height="900"
   x="-0.0078125"
   y="0"
   inkscape:label="Background" /><g
   inkscape:groupmode="layer"
   id="layer1"
   inkscape:label="Moroshka"
   style="display:inline;fill:#b64919;fill-opacity:1"
   transform="matrix(1.4097951,-0.08200324,0.08200324,1.4097951,-330.46187,234.91819)"><path
     style="fill:#b64919;fill-opacity:1;stroke-width:1.193;stroke-dasharray:none"
     d="m 763.49854,248.72481 c -41.78323,2.66862 -69.38983,13.76229 -96.34329,26.16295 -24.19128,13.41973 -44.84525,29.73362 -58.68987,51.6188 -12.22766,-30.06638 -18.65954,-62.02465 19.26866,-103.59115 21.52467,-22.71908 49.90745,-34.76999 88.38835,-31.1127 29.21356,1.78925 55.08615,11.08531 78.75735,19.35983 22.16343,7.74746 42.33158,14.29414 63.37111,21.65237 -21.59607,66.14514 -61.79321,97.4692 -82.02438,109.07122 -25.20844,17.17772 -51.15918,25.66014 -77.78175,24.92551 -38.56878,2.58418 -68.34708,-14.99072 -73.5391,-19.79899 14.31992,-26.22377 37.22798,-43.42998 60.81118,-59.9273 24.09968,-15.15018 48.54993,-28.80905 77.78174,-38.36054 z"
     id="path69"
     sodipodi:nodetypes="cccccscccccc" /><path
     style="fill:#b64919;fill-opacity:1;stroke-width:1.193;stroke-dasharray:none"
     d="m 457.25,384.25 c 36.47203,4.09159 64.56845,22.06277 77.75,64.75 10.35191,49.27498 -6.11723,85.88446 -43.75,112.5 -26.62222,17.18449 -64.69153,28.43373 -107.25,-3 -22.21288,-22.8561 -39.73161,-50.17163 -22.5,-110.5 17.68928,-38.8072 46.78094,-63.54338 95.75,-63.75 z"
     id="path68"
     sodipodi:nodetypes="cccccc" /><path
     style="fill:#b64919;fill-opacity:1;stroke-width:1.193;stroke-dasharray:none"
     d="m 552.75,440.5 c 21.91342,-18.59002 46.12897,-32.44035 57.25,-73.25 17.58548,9.66385 32.92173,10.63067 60,57 16.72022,31.53452 13.70862,62.63056 0.5,93.5 -16.31412,26.73069 -35.78309,39.03923 -56.75,44.5 -40.34763,10.40739 -58.01336,-4.13531 -79.25,-14.75 30.61754,-54.47623 27.12691,-82.80285 18.25,-107 z"
     id="path67"
     sodipodi:nodetypes="ccccccc" /><path
     style="fill:#b64919;fill-opacity:1;stroke-width:1.193;stroke-dasharray:none"
     d="m 451.48768,279.1304 c 15.89372,20.87526 24.96937,47.3163 17.85444,86.97413 26.74105,5.03121 52.86545,14.56391 74.95332,53.56334 19.55311,-14.92124 41.46585,-25.04713 47.0226,-68.41258 2.78329,-37.93108 -12.90673,-59.69215 -33.94112,-77.07464 -42.51749,-29.11206 -81.03725,-7.78719 -105.88924,4.94975 z"
     id="path66"
     sodipodi:nodetypes="cccccc" /><path
     style="display:inline;fill:#b64919;fill-opacity:1"
     d="m 286.68566,260.75888 c -3.69069,-16.72406 -2.20397,-27.87096 0.39645,-35.69454 -102.66311,-21.42718 -172.04562,77.81294 -137.63389,138.15165 19.14258,-13.7017 40.70943,-31.1768 93.49632,-26.125 1.83813,-26.74322 16.50183,-57.27178 43.74112,-76.33211 z"
     id="path56"
     sodipodi:nodetypes="ccccc" /><path
     style="fill:#b64919;fill-opacity:1;stroke-width:1.193;stroke-dasharray:none"
     d="m 274.71098,439.29009 c -16.20848,-18.34742 -34.0923,-36.08641 -34.825,-81.67083 -115.32835,-15.69952 -191.699316,176.93003 -40.12831,192.33304 8.9921,-28.00734 4.25058,-72.61189 74.95331,-110.66221 z"
     id="path59"
     sodipodi:nodetypes="cccc" /><path
     style="fill:#b64919;fill-opacity:1;stroke-width:1.193;stroke-dasharray:none"
     d="m 308.29856,244.30539 c 79.57073,-28.38327 99.19271,0.96189 130.4612,19.09189 12.03489,-7.63407 24.86055,-15.21165 49.85102,-21.92032 18.69711,-122.40114 -180.24388,-123.5559 -180.31222,2.82843 z"
     id="path60"
     sodipodi:nodetypes="cccc" /><path
     style="fill:#b64919;fill-opacity:1;stroke-width:1.193;stroke-dasharray:none"
     d="m 157.5,561.875 c 13.64869,4.8895 23.10729,8.10189 44.625,7.75 9.26083,39.54294 28.91619,73.03929 74.375,90 -0.99277,4.95547 -0.87751,13.72746 1.125,29 C 207.5484,717.43645 113.25421,650.83697 157.5,561.875 Z"
     id="path61"
     sodipodi:nodetypes="ccccc" /><path
     style="fill:#b64919;fill-opacity:1;stroke-width:1.193;stroke-dasharray:none"
     d="m 379.625,644.375 c 12.55988,23.9711 28.54639,44.33774 63.625,62.375 -40.23326,75.30445 -156.04495,34.63661 -145.75,-42.375 28.53866,3.97251 55.91967,-2.63921 82.125,-20 z"
     id="path62"
     sodipodi:nodetypes="cccc" /><path
     style="fill:#b64919;fill-opacity:1;stroke-width:1.193;stroke-dasharray:none"
     d="m 414.5,595.5 c -5.46976,12.23715 -11.27403,24.09797 -19.375,33.375 40.24534,95.11028 194.86781,102.5705 203.75,-41.125 -43.47442,0.0799 -58.49153,-12.44587 -78,-23.25 -25.39444,22.22703 -55.55286,38.82389 -106.375,31 z"
     id="path63"
     sodipodi:nodetypes="ccccc" /><path
     style="fill:#b64919;fill-opacity:1;stroke-width:1.193;stroke-dasharray:none"
     d="m 295.25,452.25 c 8.16045,7.9291 25.33956,10.82087 40,13.25 -5.09924,64.02152 17.36447,104.21451 60.25,124.25 -34.7854,71.24282 -104.6818,66.77833 -144.65345,30.59891 C 227.63317,599.33785 216.3349,566.47064 223.11279,534.54941 229.0867,506.41456 246.34123,470.69398 295.25,452.25 Z"
     id="path64"
     sodipodi:nodetypes="cccssc" /><path
     style="fill:#b64919;fill-opacity:1;stroke-width:1.193;stroke-dasharray:none"
     d="m 449.25,363.75 c -45.86461,4.10712 -83.77681,27.45396 -109,81.5 C 289.689,439.56461 242.75743,391.48215 267.77922,318.67412 272.86031,303.88926 280.58629,292.74461 294,278.5 c 8.77471,-8.66897 31.75047,-22.71504 59.96086,-24.70558 33.89987,-2.392 74.40127,11.81979 94.14922,62.97035 5.43632,14.081 0.8913,30.6724 1.13992,46.98523 z"
     id="path65"
     sodipodi:nodetypes="ccscssc" /></g><path
   id="rect1"
   style="display:none;fill:#b64919;fill-opacity:1;stroke-width:1.18269"
   d="m 393.03774,24.895416 c -14.74226,0 -26.61058,11.868316 -26.61058,26.610579 V 346.18121 c 0,14.74226 11.86832,26.61058 26.61058,26.61058 h 350.28947 c 14.74226,0 26.61058,-11.86832 26.61058,-26.61058 V 51.505995 c 0,-14.742263 -11.86832,-26.610579 -26.61058,-26.610579 z m 59.00526,57.319001 86.93713,87.553893 -87.85649,87.12655 -30.08474,-28.83506 58.41854,-57.9219 -58.40467,-58.30766 z m 85.0245,144.574913 h 118.50023 v 30.17945 H 537.0675 Z"
   inkscape:label="cli" /><path
   id="path3"
   style="display:none;fill:#b64919;fill-opacity:1"
   d="m 568.19733,135.47619 c -2.16529,0.0537 -4.2889,1.73116 -6.375,4.87305 l -94.5,164.5 c -0.85293,5.76372 1.44873,9.31922 10,8.5 l 184,-0.5 c 8.74787,-1.339 8.58273,-5.67842 5.5,-11 l -92,-161.5 c -2.25273,-3.35665 -4.45971,-4.92674 -6.625,-4.87305 z m 0.15039,40.86524 a 13.532994,13.96536 0 0 1 13.5332,13.96484 13.532994,13.96536 0 0 1 -0.0351,0.99609 h 0.0195 l -8.27344,73.48438 -10.4375,-0.0625 -8.17187,-72.22852 -0.13868,-1.21679 h 0.004 a 13.532994,13.96536 0 0 1 -0.0332,-0.97266 13.532994,13.96536 0 0 1 13.5332,-13.96484 z m -0.0879,94.00781 a 12.9375,12.9375 0 0 1 12.9375,12.9375 12.9375,12.9375 0 0 1 -12.9375,12.9375 12.9375,12.9375 0 0 1 -12.9375,-12.9375 12.9375,12.9375 0 0 1 12.9375,-12.9375 z M 403.31942,27.724423 C 397.04889,27.724423 392,32.77332 392,39.043846 V 356.68058 C 392,362.95111 397.04889,368 403.31942,368 h 327.59161 c 6.27052,0 11.31942,-5.04889 11.31942,-11.31942 V 39.043846 c 0,-6.270526 -5.0489,-11.319423 -11.31942,-11.319423 z M 417.79923,94.69355 H 717.7887 c 6.27052,0 11.31942,5.0489 11.31942,11.31942 v 237.54528 c 0,6.27053 -5.0489,11.31942 -11.31942,11.31942 H 417.79923 c -6.27053,0 -11.31942,-5.04889 -11.31942,-11.31942 V 106.01297 c 0,-6.27052 5.04889,-11.31942 11.31942,-11.31942 z"
   inkscape:label="xcp" /><path
   id="path2"
   style="display:none;fill:#b64919"
   d="m 706.04612,106.59635 c -6.53842,4.51238 -11.15998,7.93855 -31.28947,20.15254 C 595.52006,105.85596 588.96497,97.16801 572.75649,88.388348 532.60992,112.02046 487.0274,124.0041 440.35075,133.64318 c 0.5316,49.47978 5.78084,179.32206 131.16831,223.97608 77.11825,-28.32581 121.44052,-77.93741 133.81996,-203.46998 15.8356,-15.50835 20.38071,-18.77032 27.75393,-24.92552 -1.66129,41.43606 2.96813,75.34396 -30.05203,148.13888 -32.22711,64.43947 -77.39863,96.66173 -130.81475,108.36411 -73.6401,-20.53081 -104.14928,-64.07208 -128.16311,-105.00536 -29.77896,-54.94445 -29.70994,-112.296 -31.1127,-169.52885 72.53402,-10.9971 123.23538,-30.32508 159.98291,-54.977551 27.11196,17.132199 58.67635,34.177095 133.11285,50.381361 z m 42.24963,-3.88909 c -18.32098,1.72306 -50.43703,17.00987 -105.71246,63.63961 -19.60082,15.9249 -34.89609,30.22101 -76.72109,79.01918 -15.96189,-12.20522 -32.59115,-23.67633 -53.20978,-30.75914 -5.83693,8.64085 -12.31508,18.88474 -19.09189,29.87526 33.34049,16.11006 62.20502,34.28595 89.44901,53.20979 13.13443,-25.90443 38.19846,-61.41882 68.23581,-100.9395 26.57947,-33.35558 59.63828,-64.45749 97.0504,-94.0452 z"
   inkscape:label="protect" /><path
   id="path4-1"
   style="display:inline;fill:#b64919;fill-opacity:1;stroke-width:0.5"
   d="m 413.11266,275.21009 c -12.24334,-2.65514 -22.67062,-13.16803 -25.28029,-25.48784 -1.10467,-5.21498 -1.11229,-190.69358 -0.008,-195.98566 1.98432,-9.50985 8.72116,-18.217107 17.41419,-22.50755 8.1012,-3.998345 0.31897,-3.725086 106.08814,-3.725086 104.4186,0 97.94451,-0.198159 105.13811,3.218065 11.60583,5.511586 19.07048,17.188021 19.10321,29.881831 l 0.009,3.36726 -92.875,0.13274 -92.87537,0.13274 -3.5,1.16922 c -5.53005,1.84739 -9.65546,4.40123 -13.79251,8.53827 -4.13704,4.13705 -6.69088,8.26246 -8.53827,13.79251 l -1.16922,3.5 -0.13278,92.375 -0.13278,92.375 -3.11722,-0.0398 c -1.71447,-0.0219 -4.56352,-0.3534 -6.33121,-0.73675 z m 57.17335,57.26341 c -12.24334,-2.65514 -22.67062,-13.16803 -25.28029,-25.48784 -1.10467,-5.21498 -1.11229,-190.69358 -0.008,-195.98566 1.98432,-9.50985 8.72116,-18.217107 17.41419,-22.50755 8.1012,-3.998345 0.31897,-3.725086 106.08814,-3.725086 104.4186,0 97.94451,-0.198159 105.13811,3.218065 11.60583,5.511586 19.07048,17.188021 19.10321,29.881831 l 0.009,3.36726 -92.875,0.13274 L 507,121.5 l -3.5,1.16922 c -5.53005,1.84739 -9.65546,4.40123 -13.79251,8.53827 -4.13704,4.13705 -6.69088,8.26246 -8.53827,13.79251 L 480,148.5 l -0.13278,92.375 -0.13278,92.375 -3.11722,-0.0398 c -1.71447,-0.0219 -4.56352,-0.3534 -6.33121,-0.73675 z M 533.407,141.5 h 182.186 c 18.50748,0 33.407,14.89952 33.407,33.407 v 182.186 c 0,18.50748 -14.89952,33.407 -33.407,33.407 H 533.407 C 514.89952,390.5 500,375.60048 500,357.093 V 174.907 c 0,-18.50748 14.89952,-33.407 33.407,-33.407 z"
   inkscape:label="collections" /></svg>
